PathFileType	4	(X/Y/Z)	D:\Long Term Storage\D'Arcy Smith\Coord9.trc
DataRate	CameraRate	NumFrames	NumMarkers	Units	OrigDataRate	OrigDataStartFrame	OrigNumFrames
120.00	120.00	      151	4	mm	120.00	1	      4803
Frame#	Time	M1			M2			M3			M4			
		X1	Y1	Z1	X2	Y2	Z2	X3	Y3	Z3	X4	Y4	Z4	

1	0.000	1038.92932	318.40668	509.43555	1602.40808	376.19266	326.37537							
2	0.008	1038.79944	319.70343	510.69702	1603.53259	377.83246	322.91110							
3	0.017	1038.28516	320.18936	510.67502	1605.16016	378.77203	320.55969							
4	0.025	1038.21375	321.02112	509.33047	1606.76038	378.91510	319.24408							
5	0.033	1038.71448	321.93304	506.52167	1608.42419	378.20523	318.92236							
6	0.042	1039.25220	322.90723	502.82333	1610.35498	376.91776	319.65625							
7	0.050	1039.98376	323.84766	497.95889	1612.65112	374.84845	321.44061							
8	0.058	1041.17273	324.94855	492.36658	1615.05811	372.08365	324.25192							
9	0.067	1042.31311	326.27393	486.14209	1617.55786	368.69159	328.24466							
10	0.075	1044.06726	327.76318	479.52441	1620.34656	364.75366	333.34048							
11	0.083	1045.79248	329.53900	472.20380	1623.14819	360.21530	339.59793							
12	0.092	1047.51355	331.60971	464.80972	1626.51526	355.23462	347.19440							
13	0.100	1049.59509	334.14713	457.12039	1629.38757	350.30954	355.90042							
14	0.108	1051.74500	336.88644	449.27774	1631.55811	344.49524	365.53210							
15	0.117	1053.88318	339.86249	441.63138	1634.64771	339.16168	376.62787							
16	0.125	1056.34460	342.75256	434.14941	1637.76587	333.93582	388.81897							
17	0.133	1058.57202	346.49841	426.07700	1641.41724	329.49124	402.36859							
18	0.142	1060.52551	350.44159	418.28131	1643.63525	324.78937	416.67300							
19	0.150	1062.65137	354.39252	410.60413	1646.86279	321.70810	431.87564							
20	0.158	1064.79553	358.57388	402.93701	1649.45435	319.26379	447.70703							
21	0.167	1066.60779	362.85434	395.56345	1651.61035	317.45346	464.10254							
22	0.175	1068.62488	367.59595	388.28452	1653.84863	317.04739	480.77258							
23	0.183	1070.25671	371.33694	381.49796	1655.47107	317.69550	497.66684							
24	0.192	1071.90808	375.14371	374.88278	1657.01221	319.43445	514.49677							
25	0.200	1073.57202	379.21500	368.76529	1657.98511	322.70160	531.30048							
26	0.208	1075.22327	383.40781	362.66595	1658.50745	326.31024	547.33459							
27	0.217	1076.21155	387.25018	356.87384	1658.81702	330.76654	562.43774							
28	0.225	1077.36914	390.69806	351.29175	1658.92761	335.37485	576.16907							
29	0.233	1078.31079	393.65463	345.99597	1658.56750	340.17969	588.52985							
30	0.242	1079.21558	396.68539	340.50122	1658.41492	345.44321	599.54584							
31	0.250	1079.77478	398.84616	335.63257	1657.67542	349.88324	608.84711							
32	0.258	1080.31726	400.98105	330.57291	1656.77417	353.84955	616.66797							
33	0.267	1080.56128	402.24066	326.29083	1655.36682	356.90173	622.64581							
34	0.275	1080.50781	402.97052	322.29770	1654.30444	359.94565	626.94415							
35	0.283	1080.12549	402.94812	318.91116	1652.84106	361.85205	629.15613							
36	0.292	1079.51611	402.04623	316.19037	1650.71594	362.82632	629.62201							
37	0.300	1078.64929	400.61343	314.43213	1648.55481	362.78912	628.04694							
38	0.308	1077.47864	398.41870	313.53769	1645.80615	361.37466	624.27563							
39	0.317	1075.86914	395.38791	313.97418	1643.27051	359.52866	618.64832							
40	0.325	1074.02954	391.82794	315.34088	1640.83154	357.36679	611.16772							
41	0.333	1071.85046	387.58218	318.07932	1637.54309	354.24060	601.93103							
42	0.342	1069.36646	382.61426	321.76404	1634.49109	351.36249	591.18127							
43	0.350	1066.48645	377.24457	326.58316	1631.38574	348.66730	578.91351							
44	0.358	1063.48218	371.42755	332.46140	1628.44409	346.13202	565.55896							
45	0.367	1060.16565	365.06720	339.06049	1625.43481	344.04022	551.05273							
46	0.375	1056.48523	358.44946	346.72156	1622.87280	342.55209	535.68561							
47	0.383	1052.95874	351.87027	355.00259	1620.02136	341.16919	519.35284							
48	0.392	1049.31958	345.31845	364.14505	1617.37976	341.24905	502.61340							
49	0.400	1045.72510	338.76355	373.91449	1614.74658	341.27921	485.60464							
50	0.408	1042.27673	332.76395	384.31912	1612.51782	342.34500	468.17673							
51	0.417	1039.11755	326.79520	395.41754	1609.94202	344.11249	450.74139							
52	0.425	1035.46521	321.59583	406.89731	1607.65515	346.26443	433.51865							
53	0.433	1032.66565	317.09760	419.39856	1605.27051	349.00977	416.81757							
54	0.442	1030.11157	312.72446	432.11688	1602.74963	352.06488	401.09821							
55	0.450	1027.13354	309.90634	444.37589	1601.01770	355.74860	386.08044							
56	0.458	1025.34167	307.00568	457.71738	1598.74805	359.53351	372.18073							
57	0.467	1023.86023	305.39133	471.36136	1596.98792	363.51801	359.38995							
58	0.475	1022.76666	304.25058	484.91174	1593.69836	366.51147	347.83820							
59	0.483	1021.95953	303.97064	498.47733	1592.97266	370.35712	337.49500							
60	0.492	1021.59717	304.57962	511.66641	1592.67041	373.85568	328.42279							
61	0.500	1021.51434	305.75092	524.69464	1592.75745	377.03925	320.58960							
62	0.508	1022.27594	307.22168	538.26001	1593.41626	379.82028	313.82114							
63	0.517	1022.97272	309.39816	550.06500	1595.16663	382.26471	308.17215							
64	0.525	1023.74762	311.92734	561.07104	1595.55676	383.43701	303.64532							
65	0.533	1024.86609	314.78110	571.36548	1599.85144	385.23196	300.35684							
66	0.542	1026.20654	317.52118	580.64130	1601.73474	385.38016	298.25171							
67	0.550	1027.65967	320.21161	588.66193	1605.70398	385.50745	297.60040							
68	0.558	1029.30481	322.62781	595.10657	1608.80493	384.59344	298.17191							
69	0.567	1031.01465	325.02847	600.33453	1611.74622	382.59042	299.88089							
70	0.575	1032.94727	327.02170	603.95337	1615.72302	380.58707	303.08859							
71	0.583	1034.68921	328.51556	605.99506	1620.10034	377.98883	307.42462							
72	0.592	1036.32458	329.67627	606.36719	1625.88037	375.43427	313.17786							
73	0.600	1037.98401	330.44342	605.25995	1630.32251	371.65753	320.11169							
74	0.608	1039.68115	330.68002	602.10822	1634.45825	367.80713	328.12823							
75	0.617	1041.38501	330.57248	597.62018	1639.13660	363.66885	337.23071							
76	0.625	1042.83435	330.27570	591.41052	1643.67078	359.56277	347.40726							
77	0.633	1044.19507	329.66800	583.90143	1648.23108	355.32700	358.54211							
78	0.642	1045.24915	329.06418	574.74695	1652.90015	351.19131	370.80392							
79	0.650	1046.25354	328.63519	564.41187	1657.12463	347.24310	384.11240							
80	0.658	1047.08264	328.25638	552.89978	1661.48718	343.57434	398.48605							
81	0.667	1047.66602	328.25137	540.45624	1665.40161	340.50128	413.84988							
82	0.675	1048.45288	328.39157	527.28345	1668.58105	338.36499	430.07275							
83	0.683	1048.77356	329.02423	513.17493	1672.30481	335.93530	447.24353							
84	0.692	1049.13440	330.30496	498.61713	1674.51538	335.42227	464.74805							
85	0.700	1048.87842	332.50818	483.15454	1676.41821	335.23276	482.37000							
86	0.708	1048.74829	334.73969	468.29083	1677.85254	335.80710	499.48776							
87	0.717	1048.69873	337.47382	453.04196	1678.39526	336.79749	516.00128							
88	0.725	1048.91833	340.48529	438.91138	1677.97400	338.33441	531.64514							
89	0.733	1048.82727	344.03146	424.54535	1677.09595	340.25916	546.04449							
90	0.742	1048.63074	348.17029	410.53864	1675.00940	342.21722	559.48901							
91	0.750	1048.49829	352.15411	396.64651	1672.23010	343.85144	571.25934							
92	0.758	1048.47839	356.66806	383.93134	1669.57288	345.68912	581.68427							
93	0.767	1048.55115	361.39426	371.40662	1665.98303	347.03424	590.67889							
94	0.775	1048.49463	365.88812	359.65283	1662.41833	348.16406	598.22473							
95	0.783	1048.27051	370.40680	348.45181	1658.44958	348.94650	604.42035							
96	0.792	1048.23608	374.61075	337.87347	1654.37695	349.63379	609.21759							
97	0.800	1048.49487	378.70599	328.14444	1650.19666	349.98230	612.53900							
98	0.808	1048.55005	382.46835	318.84518	1645.69592	349.92252	614.54529							
99	0.817	1049.03064	385.71387	310.55011	1641.38892	349.57892	615.05219							
100	0.825	1049.58228	388.59915	302.97156	1637.25391	348.82864	614.42822							
101	0.833	1050.23840	390.95218	296.35184	1632.18018	347.79211	612.19086							
102	0.842	1051.07263	392.67438	290.36267	1627.77673	347.00668	608.78650							
103	0.850	1051.72351	393.60434	285.43204	1623.42456	345.61810	604.09302							
104	0.858	1052.69678	393.90201	281.31329	1618.51819	343.93167	598.31799							
105	0.867	1053.40771	393.45526	278.20178	1614.07336	342.38385	591.11847							
106	0.875	1054.07397	392.11984	276.13696	1609.70789	340.91562	582.90344							
107	0.883	1054.64551	389.94641	275.43317	1606.11438	339.89893	573.42090							
108	0.892	1055.12964	386.62610	275.88074	1601.41724	337.96982	562.66284							
109	0.900	1055.58313	382.70065	277.65622	1597.28760	337.21298	550.29749							
110	0.908	1055.87866	377.89182	281.06296	1593.45471	336.14609	537.24164							
111	0.917	1056.30725	372.32825	286.13339	1589.59851	335.34137	523.20270							
112	0.925	1056.25452	366.28378	292.73984	1586.46484	334.53589	508.33450							
113	0.933	1056.28137	359.86237	300.88763	1583.45691	334.94598	492.95084							
114	0.942	1055.89880	353.36874	310.50861	1580.80774	334.84528	476.96985							
115	0.950	1055.61853	347.02673	321.58542	1578.49304	335.46588	460.87628							
116	0.958	1054.80432	340.62015	334.24255	1576.56152	336.94882	444.71808							
117	0.967	1054.18091	334.96735	348.32553	1574.95374	338.09256	428.87088							
118	0.975	1053.21118	329.97824	362.96548	1573.57715	340.34613	413.78839							
119	0.983	1051.89600	325.77682	378.42532	1572.01782	342.28091	399.95221							
120	0.992	1050.18005	322.84399	394.49615	1571.65625	344.61838	387.37439							
121	1.000	1048.82153	320.34061	410.59818	1571.08276	347.25836	376.46738							
122	1.008	1047.38928	318.91891	426.45349	1571.81665	349.54971	367.04337							
123	1.017	1045.57629	318.89050	441.33878	1572.77686	351.74637	359.34280							
124	1.025	1044.28174	318.77798	455.89099	1573.23694	353.15494	353.20798							
125	1.033	1043.08728	319.43280	468.62299	1576.11365	354.95297	348.78659							
126	1.042	1042.01648	320.50543	479.21259	1577.66589	355.45319	345.85800							
127	1.050	1041.57275	321.43982	487.49698	1581.87390	356.20242	344.56534							
128	1.058	1041.02429	322.55905	493.04733	1585.25989	355.93799	344.56415							
129	1.067	1041.03333	323.29239	496.12836	1588.89453	355.00583	346.06723							
130	1.075	1041.40991	324.02280	496.20602	1592.55493	353.55569	348.59351							
131	1.083	1042.19312	324.67825	493.51343	1597.96021	352.31223	352.14026							
132	1.092	1042.85999	325.64243	488.71674	1603.01453	350.22156	356.83130							
133	1.100	1044.19238	326.46216	481.90085	1607.71423	347.58044	362.45892							
134	1.108	1045.30701	327.67981	473.55051	1612.86597	344.90155	369.00412							
135	1.117	1046.49487	329.49619	464.07312	1618.22949	341.97577	376.47470							
136	1.125	1047.70020	331.80560	453.43066	1622.97632	338.34229	384.98611							
137	1.133	1048.74915	334.67816	442.69955	1628.23340	335.32986	394.11700							
138	1.142	1050.35034	337.59872	432.41901	1633.62988	332.35287	404.03302							
139	1.150	1051.45874	341.48892	421.31958	1638.41003	329.19965	415.13940							
140	1.158	1052.70044	345.73975	410.74765	1643.35022	326.49551	426.85306							
141	1.167	1053.88586	350.38306	399.97958	1647.45605	324.72379	439.45142							
142	1.175	1055.48572	355.46671	389.84457	1651.69385	323.53757	452.59900							
143	1.183	1057.02808	360.06595	379.94293	1655.28650	322.00629	466.50320							
144	1.192	1058.72083	365.53998	370.26959	1658.52759	321.73758	480.93045							
145	1.200	1060.70911	370.81250	360.58594	1661.31445	322.10236	495.45987							
146	1.208	1062.72852	376.13052	351.25980	1663.54749	323.24075	510.16281							
147	1.217	1065.10022	381.44690	341.93228	1665.43750	325.12723	524.48688							
148	1.225	1067.95496	386.73694	332.88269	1666.93896	327.79816	538.59033							
149	1.233	1070.74402	391.93579	323.91940	1668.19739	330.38058	551.79987							
150	1.242	1073.61963	396.92908	314.94165	1669.07910	333.51575	564.43420							
151	1.250	1076.55676	401.81976	306.49158	1669.82202	337.14716	576.41187							
